<svg width="24" height="24" viewBox="0 0 24 24" fill="none" xmlns="http://www.w3.org/2000/svg">
<mask id="mask0_5_19" style="mask-type:alpha" maskUnits="userSpaceOnUse" x="0" y="0" width="24" height="24">
<rect width="24" height="24" fill="#D9D9D9"/>
</mask>
<g mask="url(#mask0_5_19)">
<path d="M5 21C4.45 21 3.97917 20.8042 3.5875 20.4125C3.19583 20.0208 3 19.55 3 19V4.99999C3 4.44999 3.19583 3.97916 3.5875 3.58749C3.97917 3.19582 4.45 2.99999 5 2.99999H13.925L11.925 4.99999H5V19H19V12.05L21 10.05V19C21 19.55 20.8042 20.0208 20.4125 20.4125C20.0208 20.8042 19.55 21 19 21H5ZM9 15V10.75L18.175 1.57499C18.375 1.37499 18.6 1.22499 18.85 1.12499C19.1 1.02499 19.35 0.974991 19.6 0.974991C19.8667 0.974991 20.1208 1.02499 20.3625 1.12499C20.6042 1.22499 20.825 1.37499 21.025 1.57499L22.425 2.99999C22.6083 3.19999 22.75 3.42082 22.85 3.66249C22.95 3.90416 23 4.14999 23 4.39999C23 4.64999 22.9542 4.89582 22.8625 5.13749C22.7708 5.37916 22.625 5.59999 22.425 5.79999L13.25 15H9ZM11 13H12.4L18.2 7.19999L17.5 6.49999L16.775 5.79999L11 11.575V13Z" fill="white"/>
</g>
</svg>
